:FULLY-SPECIFIED
:DEGREES
1498
root 4.35208 16.495 -2.51108 -60.0366 -85.8954 76.5097
lowerback -8.08296 -1.88645 -1.16555
upperback -4.81014 -2.58725 0.0733989
thorax -0.390156 -1.33943 0.532809
lowerneck -14.2902 -0.28925 1.57271
upperneck 19.23 -1.03929 0.435816
head 8.3296 -0.40119 -0.242997
rclavicle 1.27222e-014 9.14409e-015
rhumerus -41.1711 -9.06689 -77.1691
rradius 29.8047
rwrist 20.6708
rhand -24.4186 -5.94957
rfingers 7.12502
rthumb 2.07305 -35.9192
lclavicle 1.27222e-014 9.14409e-015
lhumerus -33.6974 -11.1335 89.4818
lradius 41.2881
lwrist -5.83421
lhand -37.2247 -2.00149
lfingers 7.12502
lthumb -10.2914 27.7267
rfemur -38.1478 11.2468 15.4295
rtibia 21.7642
rfoot -2.60416 -19.0476
rtoes -7.89401
lfemur -8.9084 -5.30618 -30.4433
ltibia 27.8361
lfoot -11.7663 8.20925
ltoes -27.105
1499
root 4.33109 16.5096 -2.5297 -60.5412 -85.9236 76.9298
lowerback -8.02246 -1.77743 -1.07915
upperback -4.79504 -2.44716 0.0074299
thorax -0.416471 -1.27114 0.429394
lowerneck -14.3768 -0.364091 1.53768
upperneck 19.1891 -1.1636 0.577681
head 8.33211 -0.446966 -0.203801
rclavicle 7.95139e-016 7.55382e-015
rhumerus -41.1159 -9.08133 -77.2844
rradius 29.8295
rwrist 20.4414
rhand -24.3304 -5.9653
rfingers 7.12502
rthumb 2.1583 -35.9341
lclavicle 7.95139e-016 7.55382e-015
lhumerus -34.1456 -10.8349 89.5472
lradius 41.0394
lwrist -5.69803
lhand -36.9578 -1.94389
lfingers 7.12502
lthumb -10.034 27.7969
rfemur -37.8652 11.0908 15.8338
rtibia 22.5817
rfoot -2.8868 -18.8568
rtoes -6.42418
lfemur -9.91874 -4.09536 -30.107
ltibia 30.3506
lfoot -10.5302 6.47928
ltoes -27.1414
1500
root 4.31128 16.5177 -2.5475 -61.003 -85.8392 77.2059
lowerback -7.86002 -1.7022 -1.10293
upperback -4.76465 -2.3445 -0.0846821
thorax -0.478863 -1.21896 0.360789
lowerneck -14.3846 -0.447854 1.51086
upperneck 19.0884 -1.29611 0.705344
head 8.30028 -0.498262 -0.171177
rclavicle 2.3059e-014 -2.78299e-015
rhumerus -41.0352 -9.06051 -77.4124
rradius 29.7307
rwrist 20.6357
rhand -24.2806 -5.86884
rfingers 7.12502
rthumb 2.20632 -35.8372
lclavicle 2.3059e-014 -2.78299e-015
lhumerus -34.6236 -10.5919 89.6173
lradius 40.8189
lwrist -5.33983
lhand -37.1055 -1.96673
lfingers 7.12502
lthumb -10.1765 27.7671
rfemur -37.3505 11.031 16.0795
rtibia 23.2354
rfoot -3.30723 -18.888
rtoes -5.52982
lfemur -10.964 -2.95218 -29.8591
ltibia 33.0694
lfoot -9.01935 4.86067
ltoes -26.8024
1501
root 4.29335 16.523 -2.56873 -61.3756 -85.8941 77.3485
lowerback -7.62015 -1.59618 -1.06633
upperback -4.7336 -2.205 -0.101834
thorax -0.58265 -1.14789 0.340129
lowerneck -14.402 -0.531236 1.42946
upperneck 19.0311 -1.41131 0.807437
head 8.28512 -0.54786 -0.136332
rclavicle -1.43125e-014 -3.57812e-015
rhumerus -40.9107 -8.86389 -77.5589
rradius 29.7032
rwrist 20.5896
rhand -24.1389 -5.9583
rfingers 7.12502
rthumb 2.34321 -35.9252
lclavicle -1.43125e-014 -3.57812e-015
lhumerus -35.062 -10.2328 89.67
lradius 40.4914
lwrist -5.58965
lhand -36.9646 -2.04247
lfingers 7.12502
lthumb -10.0405 27.698
rfemur -36.7598 11.0342 16.4928
rtibia 23.7522
rfoot -3.49104 -18.6997
rtoes -4.26109
lfemur -12.0937 -1.9508 -29.4498
ltibia 35.9923
lfoot -7.31263 3.57928
ltoes -26.3598
1502
root 4.27757 16.5246 -2.58447 -60.8766 -86.0861 76.7173
lowerback -7.52654 -1.46611 -0.768555
upperback -4.70698 -2.04863 -0.13979
thorax -0.619825 -1.07501 0.147923
lowerneck -14.4516 -0.60033 1.46593
upperneck 19.027 -1.52743 0.863266
head 8.29272 -0.593933 -0.136995
rclavicle 3.97569e-015 3.97569e-016
rhumerus -40.8184 -8.64762 -77.8077
rradius 29.7394
rwrist 20.7906
rhand -24.1652 -5.9527
rfingers 7.12502
rthumb 2.31782 -35.9199
lclavicle 3.97569e-015 3.97569e-016
lhumerus -35.5288 -10.0621 89.6874
lradius 40.286
lwrist -5.60595
lhand -36.8365 -1.88584
lfingers 7.12502
lthumb -9.91692 27.8606
rfemur -36.2373 11.0448 17.0092
rtibia 24.1856
rfoot -3.84655 -18.4347
rtoes -3.27557
lfemur -13.4312 -1.12992 -28.9001
ltibia 39.1034
lfoot -5.46699 2.65393
ltoes -25.7042
1503
root 4.25989 16.5278 -2.60309 -58.9648 -86.1965 74.6237
lowerback -7.40199 -1.38684 -0.543983
upperback -4.67176 -1.95448 -0.176452
thorax -0.66111 -1.03152 -0.00594788
lowerneck -14.4446 -0.644671 1.47008
upperneck 19.0014 -1.60335 0.932668
head 8.28339 -0.622544 -0.122919
rclavicle 1.90833e-014 -2.38542e-015
rhumerus -40.6724 -8.33352 -78.0795
rradius 29.8013
rwrist 20.5638
rhand -24.0291 -5.69935
rfingers 7.12502
rthumb 2.44926 -35.665
lclavicle 1.90833e-014 -2.38542e-015
lhumerus -36.0168 -10.0207 89.7516
lradius 40.1207
lwrist -5.32525
lhand -36.8859 -2.03113
lfingers 7.12502
lthumb -9.96453 27.713
rfemur -35.5107 11.0493 17.4806
rtibia 24.4468
rfoot -4.34165 -18.4103
rtoes -3.18207
lfemur -14.8051 -0.526511 -28.3922
ltibia 42.3545
lfoot -3.83333 1.87494
ltoes -24.3853
1504
root 4.24807 16.5293 -2.61881 -55.5235 -86.3728 71.0931
lowerback -7.32895 -1.29163 -0.212733
upperback -4.66028 -1.84591 -0.180685
thorax -0.699975 -0.983213 -0.186604
lowerneck -14.4094 -0.730983 1.47646
upperneck 18.9411 -1.72961 0.973402
head 8.25689 -0.67805 -0.124131
rclavicle 2.18663e-014 1.51076e-014
rhumerus -40.5205 -8.00731 -78.3488
rradius 29.9951
rwrist 20.3195
rhand -23.8188 -5.6701
rfingers 7.12502
rthumb 2.65231 -35.6334
lclavicle 2.18663e-014 1.51076e-014
lhumerus -36.4696 -9.83639 89.7508
lradius 39.9975
lwrist -5.55158
lhand -36.8074 -2.10037
lfingers 7.12502
lthumb -9.88884 27.6474
rfemur -34.8844 10.9923 18.0441
rtibia 24.6256
rfoot -4.79385 -18.3968
rtoes -3.43355
lfemur -16.4497 0.0286741 -27.8057
ltibia 45.7171
lfoot -2.33258 1.14251
ltoes -22.4922
